# xmcd
#
# Track frame offsets: 
#        150
#        17337
#        21899
#        33673
#        45125
#        57946
#        73391
#        92027
#        107713
#        112089
#        124147
#        138036
#        152049
#
# Disc length: 2378 seconds
#
# Revision: 0
# Processed by: cddbd v1.5.2PL0 Copyright (c) Steve Scherf et al.
# Submitted via: ExactAudioCopy v0.95b3
#
DISCID=a809480d
DTITLE=The Who  - Sell Out (Mono 2007 Japan CD)  FLAC
DYEAR=1900
DGENRE=
TTITLE0=Armenia City In The Sky
TTITLE1=Heinz Baked Beans
TTITLE2=Mary Anne With The Shaky Hand
TTITLE3=Odorono
TTITLE4=Tattoo
TTITLE5=Our Love Was
TTITLE6=I Can See For Miles
TTITLE7=I Can't Reach You
TTITLE8=Medac
TTITLE9=Relax
TTITLE10=Silas Stingy
TTITLE11=Sunrise
TTITLE12=Rael (1 and 2)
EXTD=
EXTT0=
EXTT1=
EXTT2=
EXTT3=
EXTT4=
EXTT5=
EXTT6=
EXTT7=
EXTT8=
EXTT9=
EXTT10=
EXTT11=
EXTT12=
PLAYORDER=
